<svg width="24" height="24" viewBox="0 0 24 24" fill="none" xmlns="http://www.w3.org/2000/svg">
<path d="M19.5 5H4.5C3.83696 5 3.20107 5.26339 2.73223 5.73223C2.26339 6.20107 2 6.83696 2 7.5V16.5C2 17.163 2.26339 17.7989 2.73223 18.2678C3.20107 18.7366 3.83696 19 4.5 19H19.5C20.163 19 20.7989 18.7366 21.2678 18.2678C21.7366 17.7989 22 17.163 22 16.5V7.5C22 6.83696 21.7366 6.20107 21.2678 5.73223C20.7989 5.26339 20.163 5 19.5 5ZM21 16.5C20.9995 16.8977 20.8414 17.279 20.5602 17.5602C20.279 17.8414 19.8977 17.9995 19.5 18H4.5C4.10231 17.9995 3.72104 17.8414 3.43984 17.5602C3.15863 17.279 3.00045 16.8977 3 16.5V7.5C3.00045 7.10231 3.15863 6.72104 3.43984 6.43984C3.72104 6.15863 4.10231 6.00045 4.5 6H19.5C19.8977 6.00045 20.279 6.15863 20.5602 6.43984C20.8414 6.72104 20.9995 7.10231 21 7.5V16.5ZM8 3.5C8 3.36739 7.94732 3.24021 7.85355 3.14645C7.75979 3.05268 7.63261 3 7.5 3H5.5C5.36739 3 5.24021 3.05268 5.14645 3.14645C5.05268 3.24021 5 3.36739 5 3.5V4H8V3.5ZM13.6875 8.5C12.9953 8.5 12.3186 8.70527 11.743 9.08986C11.1674 9.47444 10.7188 10.0211 10.4539 10.6606C10.189 11.3001 10.1197 12.0039 10.2548 12.6828C10.3898 13.3617 10.7231 13.9854 11.2126 14.4749C11.7021 14.9644 12.3258 15.2977 13.0047 15.4327C13.6836 15.5678 14.3874 15.4985 15.0269 15.2336C15.6664 14.9687 16.2131 14.5201 16.5976 13.9445C16.9822 13.3689 17.1875 12.6922 17.1875 12C17.1865 11.072 16.8175 10.1824 16.1613 9.52621C15.5051 8.87004 14.6155 8.50098 13.6875 8.5ZM13.6875 14.5C13.193 14.5 12.7097 14.3534 12.2986 14.0787C11.8875 13.804 11.567 13.4135 11.3778 12.9567C11.1886 12.4999 11.1391 11.9972 11.2355 11.5123C11.332 11.0273 11.5701 10.5819 11.9197 10.2322C12.2694 9.8826 12.7148 9.6445 13.1998 9.54804C13.6847 9.45157 14.1874 9.50108 14.6442 9.6903C15.101 9.87952 15.4915 10.2 15.7662 10.6111C16.0409 11.0222 16.1875 11.5055 16.1875 12C16.1867 12.6628 15.9231 13.2982 15.4544 13.7669C14.9857 14.2356 14.3503 14.4992 13.6875 14.5Z" fill="black"/>
</svg>
