<svg width="24" height="24" viewBox="0 0 24 24" fill="none" xmlns="http://www.w3.org/2000/svg">
<path d="M20.3765 4.98256L19.0174 3.62346C18.8281 3.43412 18.6033 3.28392 18.3559 3.18146C18.1085 3.07899 17.8434 3.02625 17.5756 3.02625C17.3079 3.02625 17.0428 3.07899 16.7954 3.18146C16.548 3.28392 16.3232 3.43412 16.1339 3.62346L3 16.7574V21H7.2427L20.3765 7.86606C20.7589 7.48367 20.9737 6.96506 20.9737 6.4243C20.9737 5.88355 20.7589 5.36494 20.3765 4.98256ZM6.8285 20H4V17.1716L14.2323 6.93926L17.0607 9.76766L6.8285 20ZM19.6694 7.15896L17.7677 9.06066L14.9393 6.23225L16.8409 4.33055C17.0358 4.13572 17.3 4.02626 17.5756 4.02626C17.8512 4.02626 18.1154 4.13572 18.3103 4.33055L19.6694 5.68996C19.8639 5.88492 19.9731 6.14907 19.9731 6.42446C19.9731 6.69984 19.8639 6.96399 19.6694 7.15896Z" fill="black"/>
</svg>
