<svg width="24" height="24" viewBox="0 0 24 24" fill="none" xmlns="http://www.w3.org/2000/svg">
<path d="M20.4852 3.51471C20.021 3.05042 19.4698 2.68211 18.8631 2.43084C18.2565 2.17956 17.6063 2.05023 16.9497 2.05023C16.2931 2.05023 15.6429 2.17956 15.0363 2.43084C14.4296 2.68211 13.8784 3.05042 13.4141 3.51471L11.2182 5.71061C11.6435 5.70636 12.0675 5.7578 12.4794 5.86361L14.1212 4.22181C14.8714 3.47166 15.8888 3.05023 16.9497 3.05023C18.0106 3.05023 19.028 3.47166 19.7781 4.22181C20.5283 4.97197 20.9497 5.98939 20.9497 7.05026C20.9497 8.11114 20.5283 9.12856 19.7781 9.87871L15.5354 14.1213C14.7847 14.8703 13.7675 15.291 12.707 15.291C11.6466 15.291 10.6294 14.8703 9.87864 14.1213C9.37951 13.6212 9.02926 12.9922 8.86704 12.3045L8.10804 13.0635C8.3164 13.7284 8.68109 14.3336 9.17154 14.8284C10.1092 15.7661 11.381 16.2928 12.707 16.2928C14.0331 16.2928 15.3049 15.7661 16.2425 14.8284L20.4852 10.5858C20.9495 10.1215 21.3178 9.57032 21.5691 8.96369C21.8204 8.35706 21.9497 7.70688 21.9497 7.05026C21.9497 6.39365 21.8204 5.74347 21.5691 5.13684C21.3178 4.53021 20.9495 3.97901 20.4852 3.51471ZM9.87864 19.7782C9.12849 20.5284 8.11107 20.9498 7.05019 20.9498C5.98932 20.9498 4.9719 20.5284 4.22174 19.7782C3.47159 19.0281 3.05016 18.0106 3.05016 16.9498C3.05016 15.8889 3.47159 14.8715 4.22174 14.1213L8.46444 9.87861C9.21518 9.12961 10.2324 8.70897 11.2928 8.70897C12.3533 8.70897 13.3705 9.12961 14.1212 9.87861C14.6204 10.3787 14.9706 11.0078 15.1328 11.6955L15.8918 10.9365C15.6835 10.2717 15.3188 9.66647 14.8283 9.17161C13.8907 8.23395 12.6189 7.70718 11.2928 7.70718C9.96678 7.70718 8.69502 8.23395 7.75734 9.17161L3.51464 13.4142C2.57696 14.3519 2.05017 15.6237 2.05017 16.9498C2.05017 18.2759 2.57696 19.5476 3.51464 20.4853C4.45233 21.423 5.72411 21.9498 7.05019 21.9498C8.37628 21.9498 9.64806 21.423 10.5857 20.4853L12.7816 18.2893C12.3564 18.2937 11.9324 18.2422 11.5204 18.1364L9.87864 19.7782Z" fill="black"/>
</svg>
