<svg width="24" height="24" viewBox="0 0 24 24" fill="none" xmlns="http://www.w3.org/2000/svg">
<g clip-path="url(#clip0)">
<path d="M12 1C14.1194 1.00233 16.1513 1.84526 17.65 3.34385C19.1487 4.84244 19.9917 6.87432 19.9941 8.9937C19.9941 15.3193 12.0821 22.5095 12 22.5837C11.92 22.5119 4.00655 15.3211 4.00655 8.9943C4.00877 6.8749 4.85163 4.84293 6.3502 3.34421C7.84876 1.8455 9.88065 1.00244 12 1ZM12 0C9.61561 0.0027525 7.32963 0.951184 5.64358 2.63723C3.95753 4.32328 3.0091 6.60927 3.00635 8.9937C3.00635 15.7563 10.9912 23.021 11.3311 23.3267L12 23.9287L12.6689 23.3267C13.0089 23.021 20.9941 15.7567 20.9941 8.9937C20.9913 6.60922 20.0428 4.32322 18.3567 2.63718C16.6706 0.951136 14.3845 0.00272589 12 0V0Z" fill="black"/>
<path d="M12 6.65C12.4648 6.65 12.9191 6.78783 13.3056 7.04605C13.692 7.30427 13.9933 7.67129 14.1711 8.10069C14.349 8.5301 14.3955 9.00261 14.3048 9.45846C14.2142 9.91432 13.9904 10.333 13.6617 10.6617C13.333 10.9904 12.9143 11.2142 12.4585 11.3048C12.0026 11.3955 11.5301 11.349 11.1007 11.1711C10.6713 10.9933 10.3043 10.692 10.046 10.3056C9.78783 9.91913 9.65 9.46479 9.65 9C9.65072 8.37696 9.89853 7.77964 10.3391 7.33909C10.7796 6.89853 11.377 6.65071 12 6.65ZM12 5.75C11.3572 5.75 10.7289 5.94061 10.1944 6.29772C9.65994 6.65484 9.24338 7.16242 8.99739 7.75628C8.75141 8.35014 8.68705 9.00361 8.81245 9.63404C8.93785 10.2645 9.24738 10.8436 9.70191 11.2981C10.1564 11.7526 10.7355 12.0622 11.366 12.1876C11.9964 12.313 12.6499 12.2486 13.2437 12.0026C13.8376 11.7566 14.3452 11.3401 14.7023 10.8056C15.0594 10.2711 15.25 9.64279 15.25 9C15.25 8.13805 14.9076 7.3114 14.2981 6.7019C13.6886 6.09241 12.862 5.75 12 5.75Z" fill="#231F20"/>
</g>
<defs>
<clipPath id="clip0">
<rect width="24" height="24" fill="white"/>
</clipPath>
</defs>
</svg>
