<svg width="24" height="24" viewBox="0 0 24 24" fill="none" xmlns="http://www.w3.org/2000/svg">
<path d="M17 9V6C17 4.67392 16.4732 3.40215 15.5355 2.46447C14.5979 1.52678 13.3261 1 12 1C10.6739 1 9.40215 1.52678 8.46447 2.46447C7.52678 3.40215 7 4.67392 7 6V9H3V23H21V9H17ZM8 6C8 4.93913 8.42143 3.92172 9.17157 3.17157C9.92172 2.42143 10.9391 2 12 2C13.0609 2 14.0783 2.42143 14.8284 3.17157C15.5786 3.92172 16 4.93913 16 6V9H8V6ZM20 22H4V10H20V22ZM12 17.833C12.1326 17.833 12.2598 17.7803 12.3536 17.6866C12.4473 17.5928 12.5 17.4656 12.5 17.333V14.667C12.5 14.5344 12.4473 14.4072 12.3536 14.3134C12.2598 14.2197 12.1326 14.167 12 14.167C11.8674 14.167 11.7402 14.2197 11.6464 14.3134C11.5527 14.4072 11.5 14.5344 11.5 14.667V17.333C11.5 17.4656 11.5527 17.5928 11.6464 17.6866C11.7402 17.7803 11.8674 17.833 12 17.833Z" fill="black"/>
</svg>
