<svg width="24" height="24" viewBox="0 0 24 24" fill="none" xmlns="http://www.w3.org/2000/svg">
<path d="M19 3C19.5302 3.00061 20.0386 3.21152 20.4135 3.58646C20.7885 3.9614 20.9994 4.46975 21 5V15C20.9994 15.5302 20.7885 16.0386 20.4135 16.4135C20.0386 16.7885 19.5302 16.9994 19 17H7.5858L7.2929 17.2929L3 21.5858V5C3.00061 4.46975 3.21152 3.9614 3.58646 3.58646C3.9614 3.21152 4.46975 3.00061 5 3H19ZM19 2H5C4.20435 2 3.44129 2.31607 2.87868 2.87868C2.31607 3.44129 2 4.20435 2 5V24L8 18H19C19.7956 18 20.5587 17.6839 21.1213 17.1213C21.6839 16.5587 22 15.7956 22 15V5C22 4.20435 21.6839 3.44129 21.1213 2.87868C20.5587 2.31607 19.7956 2 19 2Z" fill="black"/>
</svg>
