<svg width="24" height="24" viewBox="0 0 24 24" fill="none" xmlns="http://www.w3.org/2000/svg">
<path d="M16.5 8V2C16.5 1.86739 16.4473 1.74021 16.3536 1.64645C16.2598 1.55268 16.1326 1.5 16 1.5C15.8674 1.5 15.7402 1.55268 15.6464 1.64645C15.5527 1.74021 15.5 1.86739 15.5 2V8H8.5V2C8.5 1.86739 8.44732 1.74021 8.35355 1.64645C8.25979 1.55268 8.13261 1.5 8 1.5C7.86739 1.5 7.74021 1.55268 7.64645 1.64645C7.55268 1.74021 7.5 1.86739 7.5 2V8H4V11.2237C4.00002 12.7031 4.46874 14.1445 5.3389 15.3409L6.802 17.3527C7.17309 17.8629 7.6596 18.2782 8.22182 18.5645C8.78403 18.8507 9.40599 19 10.0369 19H11.5V23H12.5V19H13.9631C14.594 19 15.216 18.8507 15.7782 18.5645C16.3404 18.2782 16.8269 17.8629 17.198 17.3527L18.6611 15.3409C19.5313 14.1445 20 12.7031 20 11.2237V8H16.5ZM19 11.2237C19.0027 12.4922 18.6006 13.7284 17.8523 14.7527L16.3892 16.7645C16.1104 17.1467 15.7454 17.4577 15.3239 17.6724C14.9024 17.887 14.4361 17.9993 13.9631 18H10.0369C9.56385 17.9993 9.09764 17.887 8.67611 17.6724C8.25457 17.4577 7.88959 17.1467 7.6108 16.7645L6.1477 14.7527C5.3994 13.7284 4.99734 12.4922 5 11.2237V9H19V11.2237Z" fill="black"/>
</svg>
