<svg width="24" height="24" viewBox="0 0 24 24" fill="none" xmlns="http://www.w3.org/2000/svg">
<path d="M12 2C10.0222 2 8.08879 2.58649 6.4443 3.6853C4.79981 4.78412 3.51809 6.3459 2.76121 8.17317C2.00433 10.0004 1.8063 12.0111 2.19215 13.9509C2.578 15.8907 3.53041 17.6725 4.92894 19.0711C6.32746 20.4696 8.10929 21.422 10.0491 21.8079C11.9889 22.1937 13.9996 21.9957 15.8268 21.2388C17.6541 20.4819 19.2159 19.2002 20.3147 17.5557C21.4135 15.9112 22 13.9778 22 12C22 10.6868 21.7413 9.38642 21.2388 8.17317C20.7363 6.95991 19.9997 5.85752 19.0711 4.92893C18.1425 4.00035 17.0401 3.26375 15.8268 2.7612C14.6136 2.25866 13.3132 2 12 2ZM12 21C10.22 21 8.47991 20.4722 6.99987 19.4832C5.51983 18.4943 4.36628 17.0887 3.68509 15.4442C3.0039 13.7996 2.82567 11.99 3.17294 10.2442C3.5202 8.49836 4.37737 6.89471 5.63604 5.63604C6.89472 4.37737 8.49836 3.5202 10.2442 3.17293C11.99 2.82567 13.7996 3.0039 15.4442 3.68508C17.0887 4.36627 18.4943 5.51983 19.4832 6.99987C20.4722 8.47991 21 10.22 21 12C20.9974 14.3861 20.0483 16.6738 18.361 18.361C16.6738 20.0483 14.3861 20.9974 12 21ZM12 10.5C11.7033 10.5 11.4133 10.588 11.1666 10.7528C10.92 10.9176 10.7277 11.1519 10.6142 11.426C10.5007 11.7001 10.4709 12.0017 10.5288 12.2926C10.5867 12.5836 10.7296 12.8509 10.9393 13.0607C11.1491 13.2704 11.4164 13.4133 11.7074 13.4712C11.9983 13.5291 12.2999 13.4994 12.574 13.3858C12.8481 13.2723 13.0824 13.08 13.2472 12.8334C13.412 12.5867 13.5 12.2967 13.5 12C13.5 11.6022 13.342 11.2206 13.0607 10.9393C12.7794 10.658 12.3978 10.5 12 10.5ZM12 12.6C11.8813 12.6 11.7653 12.5648 11.6667 12.4989C11.568 12.433 11.4911 12.3392 11.4457 12.2296C11.4003 12.12 11.3884 11.9993 11.4115 11.8829C11.4347 11.7666 11.4918 11.6596 11.5757 11.5757C11.6597 11.4918 11.7666 11.4347 11.883 11.4115C11.9993 11.3884 12.12 11.4003 12.2296 11.4457C12.3393 11.4911 12.433 11.568 12.4989 11.6667C12.5648 11.7653 12.6 11.8813 12.6 12C12.5998 12.1591 12.5365 12.3116 12.4241 12.4241C12.3116 12.5365 12.1591 12.5998 12 12.6Z" fill="#231F20"/>
</svg>
