<svg width="24" height="24" viewBox="0 0 24 24" fill="none" xmlns="http://www.w3.org/2000/svg">
<path d="M21 5V9C20.2044 9 19.4413 9.31607 18.8787 9.87868C18.3161 10.4413 18 11.2044 18 12C18 12.7956 18.3161 13.5587 18.8787 14.1213C19.4413 14.6839 20.2044 15 21 15V19H3V15C3.79565 15 4.55871 14.6839 5.12132 14.1213C5.68393 13.5587 6 12.7956 6 12C6 11.2044 5.68393 10.4413 5.12132 9.87868C4.55871 9.31607 3.79565 9 3 9V5H21ZM22 4H2V10H3C3.53043 10 4.03914 10.2107 4.41421 10.5858C4.78929 10.9609 5 11.4696 5 12C5 12.5304 4.78929 13.0391 4.41421 13.4142C4.03914 13.7893 3.53043 14 3 14H2V20H22V14H21C20.4696 14 19.9609 13.7893 19.5858 13.4142C19.2107 13.0391 19 12.5304 19 12C19 11.4696 19.2107 10.9609 19.5858 10.5858C19.9609 10.2107 20.4696 10 21 10H22V4Z" fill="black"/>
<path d="M21 5V9C20.2044 9 19.4413 9.31607 18.8787 9.87868C18.3161 10.4413 18 11.2044 18 12C18 12.7956 18.3161 13.5587 18.8787 14.1213C19.4413 14.6839 20.2044 15 21 15V19H3V15C3.79565 15 4.55871 14.6839 5.12132 14.1213C5.68393 13.5587 6 12.7956 6 12C6 11.2044 5.68393 10.4413 5.12132 9.87868C4.55871 9.31607 3.79565 9 3 9V5H21ZM22 4H2V10H3C3.53043 10 4.03914 10.2107 4.41421 10.5858C4.78929 10.9609 5 11.4696 5 12C5 12.5304 4.78929 13.0391 4.41421 13.4142C4.03914 13.7893 3.53043 14 3 14H2V20H22V14H21C20.4696 14 19.9609 13.7893 19.5858 13.4142C19.2107 13.0391 19 12.5304 19 12C19 11.4696 19.2107 10.9609 19.5858 10.5858C19.9609 10.2107 20.4696 10 21 10H22V4Z" fill="black"/>
</svg>
