<svg width="24" height="24" viewBox="0 0 24 24" fill="none" xmlns="http://www.w3.org/2000/svg">
<path d="M18.8394 6.35148C18.8946 6.1391 18.9245 5.92091 18.9282 5.70149C18.9282 4.67059 18.5187 3.68192 17.7897 2.95296C17.0608 2.22401 16.0721 1.81449 15.0412 1.81449C14.4733 1.81451 13.9127 1.94284 13.4014 2.18989C12.89 2.43693 12.4411 2.79631 12.0881 3.24119C11.6618 2.74485 11.1335 2.34622 10.5392 2.07246C9.94489 1.7987 9.29859 1.65624 8.64429 1.65479C7.40509 1.65479 6.21665 2.14705 5.3404 3.0233C4.46416 3.89954 3.97189 5.08799 3.97189 6.32719C3.97685 6.73268 4.03556 7.13573 4.14649 7.52578C3.14659 8.54213 2.56261 9.89546 2.50915 11.3202C2.45569 12.7449 2.93662 14.1382 3.85755 15.2266C4.77848 16.3151 6.07293 17.02 7.48686 17.2032C8.9008 17.3863 10.3321 17.0344 11.5 16.2166V22.0002H12.5V16.4517C13.3984 16.9733 14.4185 17.2488 15.4574 17.2502C16.7327 17.2505 17.9746 16.8426 19.0014 16.0863C20.0282 15.33 20.786 14.2649 21.164 13.0469C21.5419 11.8289 21.5202 10.522 21.1019 9.31722C20.6836 8.11248 19.8908 7.07322 18.8394 6.35148ZM15.4575 16.2502C14.3602 16.2526 13.2936 15.8879 12.4275 15.2141L11.8069 14.7346L11.1932 15.2229C10.3596 15.8911 9.32226 16.2537 8.25389 16.2502C6.99879 16.2486 5.79556 15.7492 4.90812 14.8617C4.02068 13.9742 3.52147 12.7709 3.51999 11.5158C3.51837 10.2848 4.00064 9.10246 4.86279 8.22379L5.26079 7.81559L5.11229 7.26478C5.0239 6.95995 4.97682 6.64464 4.97229 6.32728C4.97329 5.3537 5.36042 4.42026 6.04875 3.73172C6.73707 3.04319 7.6704 2.65578 8.64399 2.65449C10.6235 2.65449 12.1211 4.80448 12.1211 4.80448C12.1211 4.80448 13.3529 2.81329 15.0411 2.81329C15.8066 2.81434 16.5404 3.11894 17.0817 3.66027C17.6229 4.20161 17.9274 4.93549 17.9283 5.70098C17.9074 6.07141 17.8329 6.43684 17.7071 6.78588L18.2726 7.17589C19.1483 7.77654 19.8088 8.64174 20.1573 9.64483C20.5058 10.6479 20.5241 11.7362 20.2094 12.7505C19.8948 13.7647 19.2638 14.6516 18.4087 15.2813C17.5537 15.911 16.5195 16.2505 15.4576 16.2501L15.4575 16.2502Z" fill="black"/>
</svg>
