<svg width="24" height="24" viewBox="0 0 24 24" fill="none" xmlns="http://www.w3.org/2000/svg">
<path d="M11.4093 13.5H12.5907L12.95 7H11.05L11.4093 13.5ZM12 2C10.0222 2 8.08879 2.58649 6.4443 3.6853C4.79981 4.78412 3.51809 6.3459 2.76121 8.17317C2.00433 10.0004 1.8063 12.0111 2.19215 13.9509C2.578 15.8907 3.53041 17.6725 4.92894 19.0711C6.32746 20.4696 8.10929 21.422 10.0491 21.8079C11.9889 22.1937 13.9996 21.9957 15.8268 21.2388C17.6541 20.4819 19.2159 19.2002 20.3147 17.5557C21.4135 15.9112 22 13.9778 22 12C22 10.6868 21.7413 9.38642 21.2388 8.17317C20.7363 6.95991 19.9997 5.85752 19.0711 4.92893C18.1425 4.00035 17.0401 3.26375 15.8268 2.7612C14.6136 2.25866 13.3132 2 12 2ZM12 20.5C10.3189 20.5 8.67548 20.0015 7.27766 19.0675C5.87984 18.1335 4.79037 16.806 4.14703 15.2528C3.50368 13.6996 3.33536 11.9906 3.66333 10.3417C3.9913 8.69289 4.80085 7.17834 5.9896 5.98959C7.17834 4.80085 8.6929 3.9913 10.3417 3.66333C11.9906 3.33535 13.6996 3.50368 15.2528 4.14702C16.806 4.79037 18.1335 5.87984 19.0675 7.27765C20.0015 8.67547 20.5 10.3189 20.5 12C20.4974 14.2535 19.601 16.414 18.0075 18.0075C16.414 19.601 14.2535 20.4974 12 20.5ZM12 15.1927C11.8187 15.1927 11.6415 15.2465 11.4907 15.3472C11.34 15.4479 11.2225 15.5911 11.1531 15.7586C11.0837 15.9261 11.0655 16.1104 11.1009 16.2882C11.1363 16.4661 11.2236 16.6294 11.3518 16.7576C11.48 16.8858 11.6433 16.9731 11.8212 17.0085C11.999 17.0439 12.1833 17.0257 12.3508 16.9563C12.5183 16.8869 12.6615 16.7694 12.7622 16.6187C12.8629 16.4679 12.9167 16.2907 12.9167 16.1094C12.9167 15.8663 12.8201 15.6331 12.6482 15.4612C12.4763 15.2893 12.2431 15.1927 12 15.1927Z" fill="black"/>
</svg>
