<svg width="24" height="24" viewBox="0 0 24 24" fill="none" xmlns="http://www.w3.org/2000/svg">
<path d="M12 3.5C13.6811 3.5 15.3245 3.99852 16.7224 4.93251C18.1202 5.8665 19.2096 7.19402 19.853 8.74719C20.4963 10.3004 20.6647 12.0094 20.3367 13.6583C20.0087 15.3071 19.1992 16.8217 18.0104 18.0104C16.8217 19.1992 15.3071 20.0087 13.6583 20.3367C12.0094 20.6646 10.3004 20.4963 8.74719 19.853C7.19402 19.2096 5.86651 18.1202 4.93251 16.7223C3.99852 15.3245 3.5 13.6811 3.5 12C3.50265 9.74647 4.39903 7.586 5.99252 5.99252C7.58601 4.39903 9.74648 3.50265 12 3.5ZM12 2C10.0222 2 8.08879 2.58649 6.4443 3.6853C4.79981 4.78412 3.51809 6.3459 2.76121 8.17317C2.00433 10.0004 1.8063 12.0111 2.19215 13.9509C2.578 15.8907 3.53041 17.6725 4.92894 19.0711C6.32746 20.4696 8.10929 21.422 10.0491 21.8079C11.9889 22.1937 13.9996 21.9957 15.8268 21.2388C17.6541 20.4819 19.2159 19.2002 20.3147 17.5557C21.4135 15.9112 22 13.9778 22 12C21.9971 9.34874 20.9426 6.8069 19.0678 4.93218C17.1931 3.05745 14.6513 2.00294 12 2Z" fill="black"/>
</svg>
