<svg width="24" height="24" viewBox="0 0 24 24" fill="none" xmlns="http://www.w3.org/2000/svg">
<path d="M23 11.25H19.9621C19.7873 9.39634 18.9714 7.66173 17.6548 6.34518C16.3383 5.02864 14.6037 4.21265 12.75 4.0379V1H11.25V4.0379C9.39634 4.21265 7.66173 5.02864 6.34518 6.34518C5.02864 7.66173 4.21265 9.39634 4.0379 11.25H1V12.75H4.0379C4.21265 14.6037 5.02864 16.3383 6.34518 17.6548C7.66173 18.9714 9.39634 19.7873 11.25 19.9621V23H12.75V19.9621C14.6037 19.7873 16.3383 18.9714 17.6548 17.6548C18.9714 16.3383 19.7873 14.6037 19.9621 12.75H23V11.25ZM12 18.5C10.7144 18.5 9.45771 18.1188 8.38879 17.4046C7.31987 16.6903 6.48675 15.6752 5.99478 14.4874C5.50281 13.2997 5.37409 11.9928 5.6249 10.7319C5.8757 9.47104 6.49476 8.31285 7.40381 7.40381C8.31285 6.49476 9.47104 5.8757 10.7319 5.6249C11.9928 5.37409 13.2997 5.50281 14.4874 5.99478C15.6752 6.48675 16.6903 7.31987 17.4046 8.38879C18.1188 9.45771 18.5 10.7144 18.5 12C18.498 13.7233 17.8126 15.3755 16.594 16.594C15.3755 17.8126 13.7233 18.498 12 18.5Z" fill="black"/>
</svg>
