<svg width="24" height="24" viewBox="0 0 24 24" fill="none" xmlns="http://www.w3.org/2000/svg">
<path d="M20.5859 4.58593L19.4141 3.41413C18.8512 2.85222 18.0884 2.53662 17.293 2.53662C16.4976 2.53662 15.7348 2.85222 15.1719 3.41413L3 15.5859V21H8.4141L20.5859 8.82813C21.1478 8.26524 21.4634 7.50238 21.4634 6.70703C21.4634 5.91167 21.1478 5.14882 20.5859 4.58593ZM7.7927 19.5H4.5V16.2073L13.8234 6.88393L17.1161 10.1766L7.7927 19.5ZM19.5253 7.76753L18.1766 9.11613L14.8839 5.82343L16.2325 4.47473C16.5141 4.19416 16.8954 4.03663 17.2929 4.03663C17.6905 4.03663 18.0718 4.19416 18.3534 4.47473L19.5255 5.64683C19.806 5.92843 19.9635 6.30971 19.9635 6.70718C19.9635 7.10465 19.806 7.48593 19.5255 7.76753H19.5253Z" fill="black"/>
</svg>
