<svg width="24" height="24" viewBox="0 0 24 24" fill="none" xmlns="http://www.w3.org/2000/svg">
<path d="M10.8438 8.0625V13.8125H15.5938V12.3125H12.3438V8.0625H10.8438ZM18.187 5.8125C17.3746 4.99994 16.41 4.35537 15.3484 3.9156C14.2869 3.47584 13.1491 3.2495 12 3.2495C10.8509 3.2495 9.71314 3.47584 8.65157 3.9156C7.59 4.35537 6.62545 4.99994 5.813 5.8125L5.0245 6.6009L3.2806 4.8575V9.4056H7.8287L6.0851 7.662L6.8735 6.8735C8.05955 5.68746 9.62016 4.94935 11.2894 4.78496C12.9587 4.62056 14.6333 5.04004 16.0279 5.97192C17.4226 6.9038 18.4509 8.29042 18.9378 9.89552C19.4247 11.5006 19.34 13.2249 18.6981 14.7745C18.0562 16.3242 16.8969 17.6033 15.4176 18.394C13.9383 19.1847 12.2306 19.438 10.5856 19.1107C8.94046 18.7835 7.45972 17.896 6.39564 16.5994C5.33157 15.3028 4.74999 13.6773 4.75 12H3.25C3.24994 13.439 3.60477 14.8558 4.28305 16.1248C4.96134 17.3939 5.94214 18.4761 7.13858 19.2756C8.33503 20.0751 9.71018 20.5672 11.1422 20.7082C12.5743 20.8493 14.019 20.635 15.3484 20.0843C16.6779 19.5337 17.851 18.6636 18.7639 17.5513C19.6767 16.4389 20.3012 15.1186 20.5819 13.7073C20.8626 12.296 20.7909 10.8372 20.3732 9.4602C19.9554 8.0832 19.2045 6.83048 18.187 5.813V5.8125Z" fill="black"/>
</svg>
