<svg width="24" height="24" viewBox="0 0 24 24" fill="none" xmlns="http://www.w3.org/2000/svg">
<path d="M12 6.85C11.8187 6.85 11.6415 6.90375 11.4908 7.00446C11.3401 7.10516 11.2226 7.2483 11.1533 7.41577C11.0839 7.58324 11.0658 7.76752 11.1011 7.9453C11.1365 8.12308 11.2238 8.28639 11.3519 8.41456C11.4801 8.54274 11.6434 8.63003 11.8212 8.66539C11.999 8.70075 12.1833 8.6826 12.3507 8.61324C12.5182 8.54387 12.6613 8.4264 12.762 8.27568C12.8628 8.12496 12.9165 7.94777 12.9165 7.7665C12.9165 7.52343 12.8199 7.29031 12.6481 7.11844C12.4762 6.94656 12.2431 6.85 12 6.85ZM12 2C10.0222 2 8.08879 2.58649 6.4443 3.6853C4.79981 4.78412 3.51809 6.3459 2.76121 8.17317C2.00433 10.0004 1.8063 12.0111 2.19215 13.9509C2.578 15.8907 3.53041 17.6725 4.92894 19.0711C6.32746 20.4696 8.10929 21.422 10.0491 21.8079C11.9889 22.1937 13.9996 21.9957 15.8268 21.2388C17.6541 20.4819 19.2159 19.2002 20.3147 17.5557C21.4135 15.9112 22 13.9778 22 12C22 10.6868 21.7413 9.38642 21.2388 8.17317C20.7363 6.95991 19.9997 5.85752 19.0711 4.92893C18.1425 4.00035 17.0401 3.26375 15.8268 2.7612C14.6136 2.25866 13.3132 2 12 2ZM12 20.5C10.3189 20.5 8.67548 20.0015 7.27766 19.0675C5.87984 18.1335 4.79037 16.806 4.14703 15.2528C3.50368 13.6996 3.33536 11.9906 3.66333 10.3417C3.9913 8.69289 4.80085 7.17834 5.9896 5.98959C7.17834 4.80085 8.6929 3.9913 10.3417 3.66333C11.9906 3.33535 13.6996 3.50368 15.2528 4.14702C16.806 4.79037 18.1335 5.87984 19.0675 7.27765C20.0015 8.67547 20.5 10.3189 20.5 12C20.4974 14.2535 19.601 16.414 18.0075 18.0075C16.414 19.601 14.2535 20.4974 12 20.5ZM11.25 17H12.75V10.5H11.25V17Z" fill="black"/>
</svg>
