<svg width="24" height="24" viewBox="0 0 24 24" fill="none" xmlns="http://www.w3.org/2000/svg">
<g clip-path="url(#clip0)">
<path d="M12 1.5C13.9869 1.50217 15.8917 2.29237 17.2966 3.69723C18.7016 5.10209 19.4919 7.00688 19.4941 8.9937C19.4941 14.3652 13.4965 20.4605 12 21.8974C10.5043 20.4613 4.50635 14.366 4.50635 8.9937C4.5086 7.00694 5.29883 5.10219 6.70369 3.69734C8.10854 2.29248 10.0133 1.50225 12 1.5ZM12 0C9.61561 0.0027525 7.32963 0.951184 5.64358 2.63723C3.95753 4.32328 3.0091 6.60927 3.00635 8.9937C3.00635 15.7563 10.9912 23.021 11.3311 23.3267L12 23.9287L12.6689 23.3267C13.0089 23.021 20.9941 15.7567 20.9941 8.9937C20.9913 6.60922 20.0428 4.32322 18.3567 2.63718C16.6706 0.951136 14.3845 0.00272589 12 0V0Z" fill="black"/>
<path d="M12 7.15C12.3659 7.15 12.7236 7.2585 13.0278 7.46178C13.332 7.66506 13.5692 7.95399 13.7092 8.29204C13.8492 8.63008 13.8858 9.00205 13.8145 9.36092C13.7431 9.71978 13.5669 10.0494 13.3081 10.3081C13.0494 10.5669 12.7198 10.7431 12.3609 10.8145C12.0021 10.8858 11.6301 10.8492 11.292 10.7092C10.954 10.5692 10.6651 10.332 10.4618 10.0278C10.2585 9.72357 10.15 9.3659 10.15 9C10.1506 8.50952 10.3456 8.03929 10.6925 7.69247C11.0393 7.34564 11.5095 7.15056 12 7.15ZM12 5.75C11.3572 5.75 10.7289 5.94061 10.1944 6.29772C9.65994 6.65484 9.24338 7.16242 8.99739 7.75628C8.75141 8.35014 8.68705 9.00361 8.81245 9.63404C8.93785 10.2645 9.24738 10.8436 9.70191 11.2981C10.1564 11.7526 10.7355 12.0622 11.366 12.1876C11.9964 12.313 12.6499 12.2486 13.2437 12.0026C13.8376 11.7566 14.3452 11.3401 14.7023 10.8056C15.0594 10.2711 15.25 9.64279 15.25 9C15.25 8.13805 14.9076 7.3114 14.2981 6.7019C13.6886 6.09241 12.862 5.75 12 5.75Z" fill="black"/>
</g>
<defs>
<clipPath id="clip0">
<rect width="24" height="24" fill="white"/>
</clipPath>
</defs>
</svg>
