<svg width="24" height="24" viewBox="0 0 24 24" fill="none" xmlns="http://www.w3.org/2000/svg">
<path d="M19 3.5C19.3977 3.50045 19.779 3.65863 20.0602 3.93984C20.3414 4.22104 20.4995 4.60231 20.5 5V15C20.4995 15.3977 20.3414 15.779 20.0602 16.0602C19.779 16.3414 19.3977 16.4995 19 16.5H7.3787L6.9393 16.9393L3.5 20.3787V5C3.50045 4.60231 3.65863 4.22104 3.93984 3.93984C4.22104 3.65863 4.60231 3.50045 5 3.5H19ZM19 2H5C4.20435 2 3.44129 2.31607 2.87868 2.87868C2.31607 3.44129 2 4.20435 2 5V24L8 18H19C19.7956 18 20.5587 17.6839 21.1213 17.1213C21.6839 16.5587 22 15.7956 22 15V5C22 4.20435 21.6839 3.44129 21.1213 2.87868C20.5587 2.31607 19.7956 2 19 2Z" fill="black"/>
</svg>
