<svg width="24" height="24" viewBox="0 0 24 24" fill="none" xmlns="http://www.w3.org/2000/svg">
<path d="M12.7498 12.1929V3H11.2498V12.1929C10.6291 12.3554 10.0798 12.719 9.68772 13.2269C9.29567 13.7349 9.08301 14.3584 9.08301 15C9.08301 15.6416 9.29567 16.2651 9.68772 16.7731C10.0798 17.281 10.6291 17.6446 11.2498 17.8071V21H12.7498V17.8071C13.3705 17.6446 13.9199 17.281 14.3119 16.7731C14.704 16.2651 14.9166 15.6416 14.9166 15C14.9166 14.3584 14.704 13.7349 14.3119 13.2269C13.9199 12.719 13.3705 12.3554 12.7498 12.1929ZM11.9998 16.55C11.6933 16.55 11.3936 16.4591 11.1387 16.2888C10.8838 16.1185 10.6851 15.8764 10.5678 15.5932C10.4505 15.3099 10.4198 14.9983 10.4796 14.6976C10.5394 14.3969 10.687 14.1208 10.9038 13.904C11.1206 13.6872 11.3968 13.5396 11.6974 13.4798C11.9981 13.42 12.3098 13.4507 12.593 13.568C12.8762 13.6853 13.1183 13.884 13.2886 14.1389C13.4589 14.3938 13.5498 14.6934 13.5498 15C13.5494 15.4109 13.3859 15.8049 13.0953 16.0955C12.8048 16.3861 12.4108 16.5495 11.9998 16.55ZM19.7498 6.1929V3H18.2498V6.1929C17.6291 6.3554 17.0798 6.71904 16.6877 7.22694C16.2957 7.73485 16.083 8.35838 16.083 9C16.083 9.64162 16.2957 10.2651 16.6877 10.7731C17.0798 11.281 17.6291 11.6446 18.2498 11.8071V21H19.7498V11.8071C20.3705 11.6446 20.9199 11.281 21.3119 10.7731C21.704 10.2651 21.9166 9.64162 21.9166 9C21.9166 8.35838 21.704 7.73485 21.3119 7.22694C20.9199 6.71904 20.3705 6.3554 19.7498 6.1929ZM18.9998 10.55C18.6933 10.55 18.3936 10.4591 18.1387 10.2888C17.8838 10.1185 17.6851 9.87639 17.5678 9.59316C17.4505 9.30993 17.4198 8.99828 17.4796 8.69761C17.5394 8.39694 17.687 8.12076 17.9038 7.90398C18.1206 7.68721 18.3968 7.53959 18.6974 7.47978C18.9981 7.41998 19.3098 7.45067 19.593 7.56799C19.8762 7.6853 20.1183 7.88397 20.2886 8.13887C20.4589 8.39376 20.5498 8.69344 20.5498 9C20.5494 9.41095 20.3859 9.80493 20.0953 10.0955C19.8048 10.3861 19.4108 10.5496 18.9998 10.55ZM5.74983 6.1929V3H4.24983V6.1929C3.62912 6.3554 3.07978 6.71904 2.68772 7.22694C2.29567 7.73485 2.08301 8.35838 2.08301 9C2.08301 9.64162 2.29567 10.2651 2.68772 10.7731C3.07978 11.281 3.62912 11.6446 4.24983 11.8071V21H5.74983V11.8071C6.37053 11.6446 6.91987 11.281 7.31193 10.7731C7.70398 10.2651 7.91664 9.64162 7.91664 9C7.91664 8.35838 7.70398 7.73485 7.31193 7.22694C6.91987 6.71904 6.37053 6.3554 5.74983 6.1929ZM4.99983 10.55C4.69326 10.55 4.39359 10.4591 4.13869 10.2888C3.8838 10.1185 3.68513 9.87639 3.56781 9.59316C3.4505 9.30993 3.4198 8.99828 3.47961 8.69761C3.53942 8.39694 3.68704 8.12076 3.90381 7.90398C4.12058 7.68721 4.39676 7.53959 4.69744 7.47978C4.99811 7.41998 5.30976 7.45067 5.59298 7.56799C5.87621 7.6853 6.11829 7.88397 6.2886 8.13887C6.45892 8.39376 6.54983 8.69344 6.54983 9C6.54938 9.41095 6.38593 9.80493 6.09534 10.0955C5.80476 10.3861 5.41077 10.5496 4.99983 10.55Z" fill="black"/>
</svg>
