<svg width="24" height="24" viewBox="0 0 24 24" fill="none" xmlns="http://www.w3.org/2000/svg">
<path d="M20.5 5.5V8.5356C19.6666 8.65539 18.9043 9.0716 18.3529 9.70792C17.8015 10.3442 17.4979 11.158 17.4979 12C17.4979 12.842 17.8015 13.6558 18.3529 14.2921C18.9043 14.9284 19.6666 15.3446 20.5 15.4644V18.5H3.5V15.4644C4.33343 15.3446 5.09574 14.9284 5.64714 14.2921C6.19854 13.6558 6.50207 12.842 6.50207 12C6.50207 11.158 6.19854 10.3442 5.64714 9.70792C5.09574 9.0716 4.33343 8.65539 3.5 8.5356V5.5H20.5ZM22 4H2V10H3C3.53043 10 4.03914 10.2107 4.41421 10.5858C4.78929 10.9609 5 11.4696 5 12C5 12.5304 4.78929 13.0391 4.41421 13.4142C4.03914 13.7893 3.53043 14 3 14H2V20H22V14H21C20.4696 14 19.9609 13.7893 19.5858 13.4142C19.2107 13.0391 19 12.5304 19 12C19 11.4696 19.2107 10.9609 19.5858 10.5858C19.9609 10.2107 20.4696 10 21 10H22V4Z" fill="black"/>
<path d="M20.5 5.5V8.5356C19.6666 8.65539 18.9043 9.0716 18.3529 9.70792C17.8015 10.3442 17.4979 11.158 17.4979 12C17.4979 12.842 17.8015 13.6558 18.3529 14.2921C18.9043 14.9284 19.6666 15.3446 20.5 15.4644V18.5H3.5V15.4644C4.33343 15.3446 5.09574 14.9284 5.64714 14.2921C6.19854 13.6558 6.50207 12.842 6.50207 12C6.50207 11.158 6.19854 10.3442 5.64714 9.70792C5.09574 9.0716 4.33343 8.65539 3.5 8.5356V5.5H20.5ZM22 4H2V10H3C3.53043 10 4.03914 10.2107 4.41421 10.5858C4.78929 10.9609 5 11.4696 5 12C5 12.5304 4.78929 13.0391 4.41421 13.4142C4.03914 13.7893 3.53043 14 3 14H2V20H22V14H21C20.4696 14 19.9609 13.7893 19.5858 13.4142C19.2107 13.0391 19 12.5304 19 12C19 11.4696 19.2107 10.9609 19.5858 10.5858C19.9609 10.2107 20.4696 10 21 10H22V4Z" fill="black"/>
</svg>
