<svg width="24" height="24" viewBox="0 0 24 24" fill="none" xmlns="http://www.w3.org/2000/svg">
<path d="M21 5H16V3C16 2.46957 15.7893 1.96086 15.4142 1.58579C15.0391 1.21071 14.5304 1 14 1H10C9.46957 1 8.96086 1.21071 8.58579 1.58579C8.21071 1.96086 8 2.46957 8 3V5H3V6.5H4.8647L6.2647 22H17.7347L19.1347 6.5H21V5ZM9.5 3C9.50016 2.86744 9.55289 2.74036 9.64662 2.64662C9.74036 2.55289 9.86744 2.50016 10 2.5H14C14.1326 2.50016 14.2596 2.55289 14.3534 2.64662C14.4471 2.74036 14.4998 2.86744 14.5 3V5H9.5V3ZM16.3645 20.5H7.6355L6.3708 6.5H17.6293L16.3645 20.5Z" fill="black"/>
</svg>
