<svg width="24" height="24" viewBox="0 0 24 24" xmlns="http://www.w3.org/2000/svg">
<path d="M12.5907 13.5L12.95 9.5H11.05L11.4093 13.5H12.5907ZM12 15.1927C11.8187 15.1927 11.6415 15.2465 11.4907 15.3472C11.34 15.4479 11.2225 15.5911 11.1531 15.7586C11.0837 15.9261 11.0655 16.1104 11.1009 16.2882C11.1363 16.4661 11.2236 16.6294 11.3518 16.7576C11.48 16.8858 11.6433 16.9731 11.8212 17.0085C11.999 17.0439 12.1833 17.0257 12.3508 16.9563C12.5183 16.8869 12.6615 16.7694 12.7622 16.6187C12.8629 16.4679 12.9167 16.2907 12.9167 16.1094C12.9167 15.8663 12.8201 15.6331 12.6482 15.4612C12.4763 15.2893 12.2431 15.1927 12 15.1927ZM12 1L0.453003 21H23.547L12 1ZM12 4L20.9489 19.5H3.0511L12 4Z" />
</svg>
