<svg width="24" height="24" viewBox="0 0 24 24" fill="none" xmlns="http://www.w3.org/2000/svg">
<path d="M12 9.15C12.2275 9.15 12.4498 9.08255 12.6389 8.95619C12.828 8.82983 12.9754 8.65022 13.0625 8.44009C13.1495 8.22995 13.1723 7.99872 13.1279 7.77565C13.0835 7.55257 12.974 7.34766 12.8132 7.18683C12.6523 7.026 12.4474 6.91647 12.2244 6.8721C12.0013 6.82772 11.7701 6.8505 11.5599 6.93754C11.3498 7.02458 11.1702 7.17198 11.0438 7.36109C10.9175 7.55021 10.85 7.77255 10.85 8C10.85 8.305 10.9712 8.59751 11.1868 8.81317C11.4025 9.02884 11.695 9.15 12 9.15ZM12 2C10.0222 2 8.08879 2.58649 6.4443 3.6853C4.79981 4.78412 3.51809 6.3459 2.76121 8.17317C2.00433 10.0004 1.8063 12.0111 2.19215 13.9509C2.578 15.8907 3.53041 17.6725 4.92894 19.0711C6.32746 20.4696 8.10929 21.422 10.0491 21.8079C11.9889 22.1937 13.9996 21.9957 15.8268 21.2388C17.6541 20.4819 19.2159 19.2002 20.3147 17.5557C21.4135 15.9112 22 13.9778 22 12C22 10.6868 21.7413 9.38642 21.2388 8.17317C20.7363 6.95991 19.9997 5.85752 19.0711 4.92893C18.1425 4.00035 17.0401 3.26375 15.8268 2.7612C14.6136 2.25866 13.3132 2 12 2ZM12 20C10.4178 20 8.87104 19.5308 7.55544 18.6518C6.23985 17.7727 5.21447 16.5233 4.60897 15.0615C4.00347 13.5997 3.84504 11.9911 4.15372 10.4393C4.4624 8.88743 5.22433 7.46197 6.34315 6.34315C7.46197 5.22433 8.88743 4.4624 10.4393 4.15372C11.9911 3.84504 13.5997 4.00346 15.0615 4.60896C16.5233 5.21447 17.7727 6.23984 18.6518 7.55544C19.5308 8.87103 20 10.4177 20 12C19.9976 14.121 19.154 16.1544 17.6542 17.6542C16.1544 19.154 14.121 19.9976 12 20ZM12.95 10.5H9.5V12.2H11.05V15.3H9.5V17H14.5V15.3H12.95V10.5Z" fill="black"/>
</svg>
