<svg width="24" height="24" viewBox="0 0 24 24" fill="none" xmlns="http://www.w3.org/2000/svg">
<path d="M3 3V21H21V3H3ZM19 19H5V5H19V19ZM11.7206 16.7484L12 17L12.28 16.7484C12.4221 16.6207 15.7592 13.5847 15.7592 10.7584C15.7541 9.7649 15.3558 8.81384 14.6515 8.11314C13.9472 7.41244 12.9941 7.01909 12.0006 7.01909C11.007 7.01909 10.0539 7.41244 9.34961 8.11314C8.64528 8.81384 8.24703 9.7649 8.2419 10.7584C8.2416 13.5847 11.5786 16.6207 11.7206 16.7484ZM12 9C12.4662 9.0005 12.9133 9.18593 13.243 9.5156C13.5727 9.84526 13.7581 10.2923 13.7587 10.7585C13.5287 12.0418 12.9156 13.2254 12 14.1535C11.0846 13.2253 10.4715 12.0417 10.2415 10.7585C10.2421 10.2923 10.4275 9.84533 10.7572 9.51567C11.0868 9.186 11.5338 9.00056 12 9Z" fill="black"/>
</svg>
