<svg width="24" height="24" viewBox="0 0 24 24" fill="none" xmlns="http://www.w3.org/2000/svg">
<path d="M12 5.25C12.2472 5.25 12.4889 5.17669 12.6945 5.03934C12.9 4.90199 13.0602 4.70676 13.1548 4.47836C13.2495 4.24995 13.2742 3.99861 13.226 3.75614C13.1778 3.51366 13.0587 3.29093 12.8839 3.11612C12.7091 2.9413 12.4863 2.82225 12.2439 2.77402C12.0014 2.72579 11.7501 2.75054 11.5216 2.84515C11.2932 2.93976 11.098 3.09998 10.9607 3.30554C10.8233 3.5111 10.75 3.75277 10.75 4C10.75 4.33152 10.8817 4.64946 11.1161 4.88388C11.3505 5.1183 11.6685 5.25 12 5.25ZM12 10.75C11.7528 10.75 11.5111 10.8233 11.3055 10.9607C11.1 11.098 10.9398 11.2932 10.8452 11.5216C10.7505 11.7501 10.7258 12.0014 10.774 12.2439C10.8223 12.4863 10.9413 12.7091 11.1161 12.8839C11.2909 13.0587 11.5137 13.1778 11.7561 13.226C11.9986 13.2742 12.2499 13.2495 12.4784 13.1549C12.7068 13.0602 12.902 12.9 13.0393 12.6945C13.1767 12.4889 13.25 12.2472 13.25 12C13.25 11.6685 13.1183 11.3505 12.8839 11.1161C12.6495 10.8817 12.3315 10.75 12 10.75ZM12 18.75C11.7528 18.75 11.5111 18.8233 11.3055 18.9607C11.1 19.098 10.9398 19.2932 10.8452 19.5216C10.7505 19.7501 10.7258 20.0014 10.774 20.2439C10.8223 20.4863 10.9413 20.7091 11.1161 20.8839C11.2909 21.0587 11.5137 21.1777 11.7561 21.226C11.9986 21.2742 12.2499 21.2495 12.4784 21.1549C12.7068 21.0602 12.902 20.9 13.0393 20.6945C13.1767 20.4889 13.25 20.2472 13.25 20C13.25 19.6685 13.1183 19.3505 12.8839 19.1161C12.6495 18.8817 12.3315 18.75 12 18.75Z" fill="black"/>
</svg>
