<svg width="24" height="24" viewBox="0 0 24 24" fill="none" xmlns="http://www.w3.org/2000/svg">
<path d="M12 10.75C11.7528 10.75 11.5111 10.8233 11.3055 10.9607C11.1 11.098 10.9398 11.2932 10.8452 11.5216C10.7505 11.7501 10.7258 12.0014 10.774 12.2439C10.8223 12.4863 10.9413 12.7091 11.1161 12.8839C11.2909 13.0587 11.5137 13.1778 11.7561 13.226C11.9986 13.2742 12.25 13.2495 12.4784 13.1548C12.7068 13.0602 12.902 12.9 13.0393 12.6945C13.1767 12.4889 13.25 12.2472 13.25 12C13.25 11.6685 13.1183 11.3505 12.8839 11.1161C12.6495 10.8817 12.3315 10.75 12 10.75ZM17 10.75C16.7528 10.75 16.5111 10.8233 16.3055 10.9607C16.1 11.098 15.9398 11.2932 15.8452 11.5216C15.7505 11.7501 15.7258 12.0014 15.774 12.2439C15.8223 12.4863 15.9413 12.7091 16.1161 12.8839C16.2909 13.0587 16.5137 13.1778 16.7561 13.226C16.9986 13.2742 17.25 13.2495 17.4784 13.1548C17.7068 13.0602 17.902 12.9 18.0393 12.6945C18.1767 12.4889 18.25 12.2472 18.25 12C18.25 11.6685 18.1183 11.3505 17.8839 11.1161C17.6495 10.8817 17.3315 10.75 17 10.75ZM7 10.75C6.75278 10.75 6.5111 10.8233 6.30554 10.9607C6.09998 11.098 5.93976 11.2932 5.84516 11.5216C5.75055 11.7501 5.72579 12.0014 5.77402 12.2439C5.82225 12.4863 5.94131 12.7091 6.11612 12.8839C6.29094 13.0587 6.51366 13.1778 6.75614 13.226C6.99862 13.2742 7.24995 13.2495 7.47836 13.1548C7.70677 13.0602 7.90199 12.9 8.03934 12.6945C8.17669 12.4889 8.25 12.2472 8.25 12C8.25 11.6685 8.11831 11.3505 7.88389 11.1161C7.64947 10.8817 7.33152 10.75 7 10.75ZM12 2C10.0222 2 8.08879 2.58649 6.4443 3.6853C4.79981 4.78412 3.51809 6.3459 2.76121 8.17317C2.00433 10.0004 1.8063 12.0111 2.19215 13.9509C2.578 15.8907 3.53041 17.6725 4.92894 19.0711C6.32746 20.4696 8.10929 21.422 10.0491 21.8079C11.9889 22.1937 13.9996 21.9957 15.8268 21.2388C17.6541 20.4819 19.2159 19.2002 20.3147 17.5557C21.4135 15.9112 22 13.9778 22 12C22 10.6868 21.7413 9.38642 21.2388 8.17317C20.7363 6.95991 19.9997 5.85752 19.0711 4.92893C18.1425 4.00035 17.0401 3.26375 15.8268 2.7612C14.6136 2.25866 13.3132 2 12 2ZM12 20C10.4178 20 8.87104 19.5308 7.55544 18.6518C6.23985 17.7727 5.21447 16.5233 4.60897 15.0615C4.00347 13.5997 3.84504 11.9911 4.15372 10.4393C4.4624 8.88743 5.22433 7.46197 6.34315 6.34315C7.46197 5.22433 8.88743 4.4624 10.4393 4.15372C11.9911 3.84504 13.5997 4.00346 15.0615 4.60896C16.5233 5.21447 17.7727 6.23984 18.6518 7.55544C19.5308 8.87103 20 10.4177 20 12C19.9976 14.121 19.154 16.1544 17.6542 17.6542C16.1545 19.154 14.121 19.9976 12 20Z" fill="black"/>
</svg>
