<svg width="24" height="24" viewBox="0 0 24 24" fill="none" xmlns="http://www.w3.org/2000/svg">
<path d="M12 8.20003C11.2484 8.20003 10.5137 8.4229 9.88884 8.84045C9.26393 9.258 8.77688 9.85148 8.48926 10.5458C8.20165 11.2402 8.1264 12.0042 8.27302 12.7414C8.41965 13.4785 8.78156 14.1556 9.313 14.687C9.84444 15.2185 10.5215 15.5804 11.2587 15.727C11.9958 15.8736 12.7598 15.7984 13.4542 15.5108C14.1486 15.2232 14.742 14.7361 15.1596 14.1112C15.5771 13.4863 15.8 12.7516 15.8 12C15.7988 10.9926 15.3981 10.0267 14.6857 9.31431C13.9733 8.60193 13.0075 8.2012 12 8.20003ZM12 13.8C11.644 13.8 11.296 13.6945 11 13.4967C10.704 13.2989 10.4733 13.0178 10.337 12.6889C10.2008 12.36 10.1651 11.998 10.2346 11.6489C10.304 11.2997 10.4755 10.979 10.7272 10.7272C10.9789 10.4755 11.2997 10.3041 11.6488 10.2346C11.998 10.1652 12.3599 10.2008 12.6888 10.3371C13.0177 10.4733 13.2989 10.704 13.4967 11C13.6944 11.296 13.8 11.644 13.8 12C13.7994 12.4773 13.6096 12.9348 13.2722 13.2722C12.9347 13.6097 12.4772 13.7995 12 13.8ZM20.2886 11.1567L22.6621 9.20263L22.4468 8.55183C21.973 7.12127 21.2118 5.80262 20.21 4.67683L19.7539 4.16503L16.875 5.24373L15.4136 4.40003L14.9082 1.36683L14.2368 1.22813C12.7612 0.923467 11.2388 0.923467 9.76321 1.22813L9.09181 1.36683L8.58641 4.40003L7.12501 5.24373L4.24611 4.16503L3.79001 4.67683C2.7882 5.80262 2.02702 7.12127 1.55321 8.55183L1.33791 9.20263L3.71141 11.1567V12.8433L1.33791 14.7974L1.55321 15.4482C2.02681 16.8789 2.7882 18.1975 3.79051 19.3228L4.24611 19.8345L7.12501 18.7563L8.58641 19.6L9.09181 22.6332L9.76321 22.7719C11.2388 23.0766 12.7612 23.0766 14.2368 22.7719L14.9082 22.6332L15.4136 19.6L16.875 18.7567L19.7539 19.8354L20.21 19.3236C21.2118 18.1978 21.973 16.8792 22.4468 15.4486L22.6621 14.7978L20.2886 12.8437V11.1567ZM20.3118 15.4529C20.012 16.1732 19.6203 16.8518 19.1465 17.4716L17.5765 16.8835L16.6927 16.5524L15.8753 17.024L14.4139 17.8673L13.5957 18.3393L13.4405 19.2709L13.1651 20.9246C12.3915 21.0252 11.6081 21.0252 10.8345 20.9246L10.5591 19.2709L10.4039 18.3393L9.58571 17.8673L8.12451 17.024L7.30741 16.5524L6.42361 16.8834L4.85361 17.4713C4.37982 16.8516 3.98814 16.1731 3.68831 15.4529L4.98281 14.3873L5.71151 13.7873V10.2127L4.98281 9.61273L3.68821 8.54713C3.98802 7.82683 4.3797 7.14831 4.85351 6.52843L6.42351 7.11653L7.30731 7.44763L8.12471 6.97603L9.58611 6.13273L10.4043 5.66063L10.5595 4.72913L10.8349 3.07543C11.6085 2.9749 12.3919 2.9749 13.1655 3.07543L13.4409 4.72913L13.5961 5.66063L14.4143 6.13273L15.8757 6.97603L16.6931 7.44763L17.5769 7.11653L19.1469 6.52843C19.6206 7.14837 20.0123 7.82688 20.3122 8.54713L19.0173 9.61273L18.2886 10.2127V13.7873L19.0173 14.3873L20.3118 15.4529Z" fill="black"/>
</svg>
