<svg width="24" height="24" viewBox="0 0 24 24" fill="none" xmlns="http://www.w3.org/2000/svg">
<path d="M22 16.1387L20.874 15.0063C20.5961 14.7287 20.3757 14.3988 20.2257 14.0357C20.0758 13.6726 19.999 13.2835 20 12.8906V9C20 6.87827 19.1571 4.84344 17.6569 3.34315C16.1566 1.84285 14.1217 1 12 1C9.87827 1 7.84344 1.84285 6.34315 3.34315C4.84285 4.84344 4 6.87827 4 9V12.8906C4.00094 13.2835 3.92421 13.6728 3.77422 14.0359C3.62423 14.3991 3.40393 14.729 3.126 15.0068L2 16.1387V20H8.05C8.16642 20.9657 8.63261 21.8554 9.36043 22.5007C10.0882 23.1461 11.0273 23.5024 12 23.5024C12.9727 23.5024 13.9118 23.1461 14.6396 22.5007C15.3674 21.8554 15.8336 20.9657 15.95 20H22V16.1387ZM12 21.5C11.5567 21.4995 11.1262 21.352 10.7757 21.0805C10.4253 20.8091 10.1748 20.4291 10.0635 20H13.9365C13.8252 20.4291 13.5747 20.8091 13.2243 21.0805C12.8738 21.352 12.4433 21.4995 12 21.5ZM20 18H4V16.9641L4.5439 16.4174C5.00697 15.9544 5.37399 15.4045 5.62388 14.7993C5.87376 14.1941 6.00159 13.5454 6 12.8906V9C6 7.4087 6.63214 5.88258 7.75736 4.75736C8.88258 3.63214 10.4087 3 12 3C13.5913 3 15.1174 3.63214 16.2426 4.75736C17.3679 5.88258 18 7.4087 18 9V12.8906C17.9983 13.5453 18.1261 14.1939 18.376 14.799C18.6259 15.4041 18.993 15.9538 19.4561 16.4166L20 16.9638V18Z" fill="black"/>
</svg>
