<svg width="24" height="24" viewBox="0 0 24 24" fill="none" xmlns="http://www.w3.org/2000/svg">
<path d="M13 11.9231V3H11V11.9231C10.347 12.1308 9.77698 12.5409 9.37249 13.0941C8.96801 13.6472 8.75 14.3147 8.75 15C8.75 15.6852 8.96801 16.3527 9.37249 16.9058C9.77698 17.459 10.347 17.8691 11 18.0768V21H13V18.0768C13.653 17.8691 14.2229 17.459 14.6274 16.9058C15.0319 16.3527 15.2499 15.6852 15.2499 15C15.2499 14.3147 15.0319 13.6472 14.6274 13.0941C14.2229 12.5409 13.653 12.1308 13 11.9231ZM12 16.45C11.7132 16.45 11.4328 16.365 11.1944 16.2056C10.9559 16.0463 10.7701 15.8198 10.6603 15.5549C10.5506 15.2899 10.5219 14.9984 10.5778 14.7171C10.6338 14.4358 10.7719 14.1775 10.9746 13.9747C11.1774 13.7719 11.4358 13.6338 11.7171 13.5779C11.9983 13.5219 12.2899 13.5506 12.5548 13.6604C12.8198 13.7701 13.0463 13.956 13.2056 14.1944C13.3649 14.4329 13.45 14.7132 13.45 15C13.4495 15.3844 13.2966 15.753 13.0248 16.0248C12.753 16.2967 12.3844 16.4496 12 16.45ZM20 5.9231V3H18V5.9231C17.347 6.13084 16.777 6.54095 16.3725 7.09408C15.968 7.64722 15.75 8.3147 15.75 8.99995C15.75 9.6852 15.968 10.3527 16.3725 10.9058C16.777 11.459 17.347 11.8691 18 12.0768V21H20V12.0768C20.653 11.8691 21.2229 11.459 21.6274 10.9058C22.0319 10.3527 22.2499 9.6852 22.2499 8.99995C22.2499 8.3147 22.0319 7.64722 21.6274 7.09408C21.2229 6.54095 20.653 6.13084 20 5.9231ZM19 10.45C18.7132 10.45 18.4328 10.365 18.1944 10.2056C17.9559 10.0463 17.7701 9.81984 17.6603 9.55489C17.5506 9.28994 17.5219 8.99839 17.5778 8.71712C17.6338 8.43585 17.7719 8.17748 17.9746 7.9747C18.1774 7.77191 18.4358 7.63381 18.7171 7.57786C18.9983 7.52191 19.2899 7.55063 19.5548 7.66037C19.8198 7.77012 20.0463 7.95597 20.2056 8.19442C20.3649 8.43287 20.45 8.71322 20.45 9C20.4495 9.38443 20.2966 9.753 20.0248 10.0248C19.753 10.2967 19.3844 10.4496 19 10.45ZM5.99995 5.9231V3H3.99995V5.9231C3.34695 6.13084 2.77698 6.54095 2.37249 7.09408C1.96801 7.64722 1.75 8.3147 1.75 8.99995C1.75 9.6852 1.96801 10.3527 2.37249 10.9058C2.77698 11.459 3.34695 11.8691 3.99995 12.0768V21H5.99995V12.0768C6.65295 11.8691 7.22293 11.459 7.62741 10.9058C8.03189 10.3527 8.2499 9.6852 8.2499 8.99995C8.2499 8.3147 8.03189 7.64722 7.62741 7.09408C7.22293 6.54095 6.65295 6.13084 5.99995 5.9231ZM4.99995 10.45C4.71317 10.45 4.43283 10.365 4.19438 10.2056C3.95592 10.0463 3.77007 9.81984 3.66033 9.55489C3.55058 9.28994 3.52186 8.99839 3.57781 8.71712C3.63376 8.43585 3.77186 8.17748 3.97465 7.9747C4.17743 7.77191 4.4358 7.63381 4.71707 7.57786C4.99834 7.52191 5.28989 7.55063 5.55484 7.66037C5.8198 7.77012 6.04625 7.95597 6.20558 8.19442C6.36491 8.43287 6.44995 8.71322 6.44995 9C6.44953 9.38443 6.29662 9.753 6.02479 10.0248C5.75295 10.2967 5.38439 10.4496 4.99995 10.45Z" fill="black"/>
</svg>
