<svg width="24" height="24" viewBox="0 0 24 24" fill="none" xmlns="http://www.w3.org/2000/svg">
<path d="M16.3143 14.9C17.5656 13.2889 18.1558 11.2614 17.9648 9.23044C17.7738 7.19943 16.8159 5.31758 15.2861 3.96805C13.7563 2.61851 11.7697 1.90275 9.73074 1.96651C7.69177 2.03026 5.75375 2.86874 4.31127 4.31121C2.8688 5.75369 2.03032 7.69171 1.96657 9.73068C1.90281 11.7697 2.61857 13.7563 3.96811 15.286C5.31765 16.8158 7.1995 17.7737 9.2305 17.9648C11.2615 18.1558 13.289 17.5655 14.9001 16.3142L20.7931 22.207L22.2071 20.793L16.3143 14.9ZM10.0001 16C8.81338 16 7.65334 15.6481 6.66664 14.9888C5.67995 14.3295 4.91091 13.3925 4.45679 12.2961C4.00266 11.1997 3.88384 9.99335 4.11535 8.82946C4.34686 7.66558 4.91831 6.59648 5.75742 5.75736C6.59654 4.91825 7.66564 4.3468 8.82952 4.11529C9.99341 3.88378 11.1998 4.0026 12.2962 4.45673C13.3925 4.91085 14.3296 5.67989 14.9889 6.66658C15.6482 7.65328 16.0001 8.81331 16.0001 10C15.9983 11.5907 15.3655 13.1158 14.2407 14.2407C13.1159 15.3655 11.5908 15.9982 10.0001 16ZM10.8001 6.5529H9.20006V9.2H6.55296V10.8H9.20006V13.4467H10.8001V10.8H13.4468V9.2H10.8001V6.5529Z" fill="black"/>
</svg>
